<svg width="48" height="48" viewBox="0 0 48 48" fill="none" xmlns="http://www.w3.org/2000/svg">
<path d="M30.755 34.2H17.305C16.6949 34.2 16.2 33.8508 16.2 33.42C16.2 32.9892 16.6949 32.64 17.305 32.64H30.755C31.3654 32.64 31.86 32.9892 31.86 33.42C31.86 33.8508 31.3652 34.2 30.755 34.2Z" fill="#3195CD"/>
<path d="M13.4817 13.7617C15.3936 13.7617 16.8569 16.2047 16.9923 19.5222C17.9826 19.9454 20.7049 20.942 24.378 20.9419C26.5614 20.9418 28.736 20.5886 30.8414 19.892C31.7006 19.6076 32.5545 19.4635 33.3793 19.4635C35.7784 19.4635 37.4391 20.6651 38.0208 21.856C38.163 22.1473 38.1099 22.4961 37.8875 22.732C37.6651 22.9678 37.3198 23.041 37.0207 22.9161C36.5188 22.7063 36.0206 22.5998 35.5398 22.5998C33.3359 22.5998 31.932 24.8429 31.9192 24.8637C31.9153 24.8702 31.9111 24.8768 31.907 24.8832C30.2487 27.4442 27.4396 28.973 24.3924 28.973C19.4594 28.973 15.4461 24.9597 15.4461 20.0267C15.4461 17.11 14.302 15.3189 13.4816 15.3189C12.6614 15.3189 11.517 17.11 11.517 20.0267C11.517 20.4568 11.1685 20.8054 10.7384 20.8054C10.3085 20.8054 9.95972 20.4568 9.95972 20.0267C9.95982 16.4551 11.474 13.7617 13.4817 13.7617ZM24.3925 27.4157C26.9065 27.4157 29.2244 26.1556 30.595 24.0442C30.7243 23.8351 32.1202 21.662 34.5191 21.1501C34.169 21.0677 33.7867 21.0207 33.3793 21.0207C32.721 21.0207 32.0318 21.1383 31.3306 21.3704C29.067 22.1193 26.728 22.499 24.3781 22.4991C24.3784 22.4991 24.3778 22.4991 24.3781 22.4991C21.0995 22.4991 18.5289 21.7686 17.1036 21.2427C17.6853 24.7406 20.7323 27.4157 24.3925 27.4157Z" fill="#3195CD"/>
</svg>